<svg width="52" height="74" viewBox="0 0 52 74" fill="none" xmlns="http://www.w3.org/2000/svg">
<mask id="mask0_280_2608" style="mask-type:alpha" maskUnits="userSpaceOnUse" x="0" y="0" width="51" height="73">
<path fill-rule="evenodd" clip-rule="evenodd" d="M0.15625 15.4084C0.15625 11.4754 0.534667 7.6308 1.25708 3.90899C1.67885 1.73604 3.88961 0.465278 6.0277 1.03818L27.2937 6.73638C29.4201 7.30614 30.658 9.4875 30.3866 11.6721C30.2346 12.8962 30.1562 14.1431 30.1562 15.4084C30.1562 27.6589 37.4991 38.1944 48.0236 42.8538C50.0097 43.7331 51.2402 45.8716 50.678 47.9696L44.9687 69.2773C44.3922 71.4287 42.1624 72.7072 40.0637 71.9615C16.8082 63.6987 0.15625 41.4982 0.15625 15.4084Z" fill="url(#paint0_linear_280_2608)"/>
</mask>
<g mask="url(#mask0_280_2608)">
<path fill-rule="evenodd" clip-rule="evenodd" d="M0.15625 15.4084C0.15625 11.4754 0.534667 7.6308 1.25708 3.90899C1.67885 1.73604 3.88961 0.465278 6.0277 1.03818L27.2937 6.73638C29.4201 7.30614 30.658 9.4875 30.3866 11.6721C30.2346 12.8962 30.1562 14.1431 30.1562 15.4084C30.1562 27.6589 37.4991 38.1944 48.0236 42.8538C50.0097 43.7331 51.2402 45.8716 50.678 47.9696L44.9687 69.2773C44.3922 71.4287 42.1624 72.7072 40.0637 71.9615C16.8082 63.6987 0.15625 41.4982 0.15625 15.4084Z" fill="#B1E3FF"/>
</g>
<defs>
<linearGradient id="paint0_linear_280_2608" x1="51.689" y1="0" x2="27.2879" y2="29.4076" gradientUnits="userSpaceOnUse">
<stop/>
<stop offset="1"/>
</linearGradient>
</defs>
</svg>
