<svg width="75" height="120" viewBox="0 0 75 120" fill="none" xmlns="http://www.w3.org/2000/svg">
<mask id="mask0_280_2601" style="mask-type:alpha" maskUnits="userSpaceOnUse" x="1" y="0" width="74" height="120">
<path fill-rule="evenodd" clip-rule="evenodd" d="M1.48318 115.29C1.04767 116.916 2.03291 118.589 3.68582 118.904C7.34675 119.602 11.1256 119.967 14.9899 119.967C48.1269 119.967 74.9899 93.1044 74.9899 59.9673C74.9899 28.5463 50.8373 2.76649 20.0849 0.180577C18.3955 0.0385196 16.9899 1.40452 16.9899 3.09986L16.9899 27.2239C16.9899 28.8042 18.2204 30.0973 19.7808 30.3478C34.0721 32.6415 44.9899 45.0294 44.9899 59.9673C44.9899 76.5358 31.5584 89.9673 14.9899 89.9673C13.737 89.9673 12.502 89.8905 11.2895 89.7413C9.6952 89.5452 8.1317 90.4777 7.71596 92.0293L1.48318 115.29Z" fill="url(#paint0_linear_280_2601)"/>
</mask>
<g mask="url(#mask0_280_2601)">
<path fill-rule="evenodd" clip-rule="evenodd" d="M1.48318 115.29C1.04767 116.916 2.03291 118.589 3.68582 118.904C7.34675 119.602 11.1256 119.967 14.9899 119.967C48.1269 119.967 74.9899 93.1044 74.9899 59.9673C74.9899 28.5463 50.8373 2.76649 20.0849 0.180577C18.3955 0.0385196 16.9899 1.40452 16.9899 3.09986L16.9899 27.2239C16.9899 28.8042 18.2204 30.0973 19.7808 30.3478C34.0721 32.6415 44.9899 45.0294 44.9899 59.9673C44.9899 76.5358 31.5584 89.9673 14.9899 89.9673C13.737 89.9673 12.502 89.8905 11.2895 89.7413C9.6952 89.5452 8.1317 90.4777 7.71596 92.0293L1.48318 115.29Z" fill="url(#paint1_linear_280_2601)"/>
<path fill-rule="evenodd" clip-rule="evenodd" d="M1.48318 115.29C1.04767 116.916 2.03291 118.589 3.68582 118.904C7.34675 119.602 11.1256 119.967 14.9899 119.967C48.1269 119.967 74.9899 93.1044 74.9899 59.9673C74.9899 28.5463 50.8373 2.76649 20.0849 0.180577C18.3955 0.0385196 16.9899 1.40452 16.9899 3.09986L16.9899 27.2239C16.9899 28.8042 18.2204 30.0973 19.7808 30.3478C34.0721 32.6415 44.9899 45.0294 44.9899 59.9673C44.9899 76.5358 31.5584 89.9673 14.9899 89.9673C13.737 89.9673 12.502 89.8905 11.2895 89.7413C9.6952 89.5452 8.1317 90.4777 7.71596 92.0293L1.48318 115.29Z" fill="#1C1C1C" style="mix-blend-mode:screen"/>
</g>
<defs>
<linearGradient id="paint0_linear_280_2601" x1="74.9899" y1="0" x2="34.362" y2="43.0674" gradientUnits="userSpaceOnUse">
<stop/>
<stop offset="1"/>
</linearGradient>
<linearGradient id="paint1_linear_280_2601" x1="37.8397" y1="0" x2="37.8397" y2="119.967" gradientUnits="userSpaceOnUse">
<stop/>
<stop offset="1" stop-color="#1C1C1C" stop-opacity="0.6"/>
<stop offset="1" stop-opacity="0.6"/>
</linearGradient>
</defs>
</svg>
