<svg width="29" height="34" viewBox="0 0 29 34" fill="none" xmlns="http://www.w3.org/2000/svg">
<mask id="mask0_280_2622" style="mask-type:alpha" maskUnits="userSpaceOnUse" x="1" y="0" width="28" height="32">
<path fill-rule="evenodd" clip-rule="evenodd" d="M13.5692 29.9016C14.6283 31.7359 16.9267 32.3975 18.9246 31.6943C20.8352 31.0218 22.8343 30.5372 24.8998 30.2628C27.0897 29.9719 28.8883 28.2091 28.8883 26V4C28.8883 1.79086 27.0953 -0.0139506 24.8909 0.131047C17.5278 0.615375 10.5274 2.42797 4.12706 5.33149C2.07413 6.26281 1.37081 8.77325 2.49796 10.7255L13.5692 29.9016Z" fill="url(#paint0_linear_280_2622)"/>
</mask>
<g mask="url(#mask0_280_2622)">
<path fill-rule="evenodd" clip-rule="evenodd" d="M13.5692 29.9016C14.6283 31.7359 16.9267 32.3975 18.9246 31.6943C20.8352 31.0218 22.8343 30.5372 24.8998 30.2628C27.0897 29.9719 28.8883 28.2091 28.8883 26V4C28.8883 1.79086 27.0953 -0.0139506 24.8909 0.131047C17.5278 0.615375 10.5274 2.42797 4.12706 5.33149C2.07413 6.26281 1.37081 8.77325 2.49796 10.7255L13.5692 29.9016Z" fill="#E3F5FF"/>
</g>
<defs>
<linearGradient id="paint0_linear_280_2622" x1="28.8883" y1="0" x2="18.4178" y2="15.3713" gradientUnits="userSpaceOnUse">
<stop/>
<stop offset="1"/>
</linearGradient>
</defs>
</svg>
