<svg width="44" height="43" viewBox="0 0 44 43" fill="none" xmlns="http://www.w3.org/2000/svg">
<mask id="mask0_280_2615" style="mask-type:alpha" maskUnits="userSpaceOnUse" x="1" y="1" width="41" height="41">
<path fill-rule="evenodd" clip-rule="evenodd" d="M30.1631 3.47995C29.055 1.5606 26.5888 0.897337 24.7535 2.13975C14.5786 9.02778 6.63056 18.9569 2.21449 30.6222C1.41526 32.7334 2.69276 35.0113 4.87325 35.5956L26.2718 41.3293C28.3123 41.876 30.401 40.726 31.3202 38.8239C33.3312 34.6627 36.2748 31.0366 39.8797 28.2169C41.6098 26.8638 42.2712 24.4517 41.173 22.5496L30.1631 3.47995Z" fill="url(#paint0_linear_280_2615)"/>
</mask>
<g mask="url(#mask0_280_2615)">
<path fill-rule="evenodd" clip-rule="evenodd" d="M30.1631 3.47995C29.055 1.5606 26.5888 0.897337 24.7535 2.13975C14.5786 9.02778 6.63056 18.9569 2.21449 30.6222C1.41526 32.7334 2.69276 35.0113 4.87325 35.5956L26.2718 41.3293C28.3123 41.876 30.401 40.726 31.3202 38.8239C33.3312 34.6627 36.2748 31.0366 39.8797 28.2169C41.6098 26.8638 42.2712 24.4517 41.173 22.5496L30.1631 3.47995Z" fill="#FFDFD0"/>
</g>
<defs>
<linearGradient id="paint0_linear_280_2615" x1="43.1567" y1="0" x2="30.6506" y2="21.3879" gradientUnits="userSpaceOnUse">
<stop/>
<stop offset="1"/>
</linearGradient>
</defs>
</svg>
