<svg width="31" height="36" viewBox="0 0 31 36" fill="none" xmlns="http://www.w3.org/2000/svg">
<path d="M19.0641 3.2283C21.8712 4.06489 24.3865 5.91415 25.9885 8.36644C27.2356 10.2376 28.0038 12.4454 28.0713 14.697C28.127 15.2206 26.774 14.8192 26.4784 14.8575C25.8571 14.8201 25.2395 14.6623 24.6301 14.5464C21.4972 13.6615 18.8278 11.5139 17.2531 8.66933C16.6519 7.45048 16.2067 6.16321 15.975 4.8212C15.9257 4.16433 15.7104 3.40985 15.9266 2.77124C16.9566 2.64716 18.0404 3.00205 19.0513 3.22557L19.065 3.2283H19.0641Z" fill="#100A07"/>
<path d="M26.2105 15.9794C26.6822 15.879 27.1429 15.9292 27.6456 15.9192C27.8445 15.9173 28.1255 15.9119 28.0689 16.1901C27.9968 18.106 27.444 20.0154 26.455 21.6631C25.0145 24.2604 22.6005 26.2565 19.8298 27.2984C19.3746 27.4873 15.698 28.561 15.8503 27.7263C15.8284 25.9847 16.2535 24.2385 17.0089 22.6748C18.6693 19.0776 22.2812 16.4976 26.195 15.9803L26.2096 15.9785L26.2105 15.9794Z" fill="#100A07"/>
<path d="M15.0612 3.25102C15.1762 3.04484 15.2793 2.52299 15.3449 2.76658C15.3951 10.2567 15.3477 20.5886 15.3614 28.0787C15.3377 28.5458 15.1862 27.9665 15.1862 27.9665C15.1862 27.9665 14.0476 21.3422 12.2039 19.3597C10.382 17.2669 7.56476 16.5671 4.9665 15.976C4.82783 15.8665 1.79166 15.5344 2.57534 15.3793C10.2004 13.9315 13.368 11.1982 15.0557 3.26382L15.0603 3.25102H15.0612Z" fill="#FF4F00"/>
<path d="M10.6006 22.3267C10.5988 25.3966 10.6006 28.4766 10.6006 31.5483C10.6006 31.9972 10.6006 32.4497 10.6006 32.8967C10.6061 33.2406 10.617 33.6621 10.4455 33.923C9.95105 34.9494 8.94569 35.0142 7.92846 34.9795C6.70596 35.0644 5.57834 34.309 5.6714 33.018C5.67414 29.5613 5.67322 26.1018 5.6714 22.6451C5.67322 22.4526 5.66228 22.2564 5.68052 22.0886C5.70424 21.8203 5.81919 21.6205 5.93232 21.418C6.24433 20.9199 6.79993 20.5568 7.39749 20.5686C7.88923 20.5696 8.43935 20.5686 8.92562 20.5686C9.07432 20.5732 9.23762 20.5896 9.36991 20.6289C10.0551 20.887 10.6344 21.5403 10.6015 22.3093V22.3258L10.6006 22.3267Z" fill="#100A07"/>
</svg>
